<mxfile host="app.diagrams.net" modified="2022-10-27T05:24:57.325Z" agent="5.0 (Windows NT 10.0; Win64; x64) AppleWebKit/537.36 (KHTML, like Gecko) Chrome/106.0.0.0 Safari/537.36" etag="J0yUzel3C0qtvSymv8bf" version="20.4.0" type="github">
  <diagram id="eBfoPabh3ztfJm1XBm16" name="第 1 页">
    <mxGraphModel dx="2406" dy="847" grid="1" gridSize="10" guides="1" tooltips="1" connect="1" arrows="1" fold="1" page="1" pageScale="1" pageWidth="413" pageHeight="291" math="0" shadow="0">
      <root>
        <mxCell id="0" />
        <mxCell id="1" parent="0" />
        <mxCell id="DlZnM8HmDbADATsCwCUh-62" value="" style="rounded=0;whiteSpace=wrap;html=1;fontSize=24;fillColor=#eeeeee;strokeColor=#36393d;" vertex="1" parent="1">
          <mxGeometry x="-350" y="1350" width="865" height="840" as="geometry" />
        </mxCell>
        <mxCell id="DlZnM8HmDbADATsCwCUh-56" value="" style="rounded=0;whiteSpace=wrap;html=1;fontSize=24;fillColor=#e1d5e7;strokeColor=#9673a6;" vertex="1" parent="1">
          <mxGeometry x="-320" y="1530" width="805" height="650" as="geometry" />
        </mxCell>
        <mxCell id="DlZnM8HmDbADATsCwCUh-26" value="" style="whiteSpace=wrap;html=1;aspect=fixed;fontSize=18;fillColor=#d5e8d4;strokeColor=#82b366;" vertex="1" parent="1">
          <mxGeometry x="-450" y="120" width="794" height="794" as="geometry" />
        </mxCell>
        <mxCell id="DlZnM8HmDbADATsCwCUh-1" value="&lt;font style=&quot;font-size: 18px;&quot;&gt;产品定位：妇幼家庭医生，健康咨询&lt;/font&gt;" style="text;html=1;strokeColor=none;fillColor=none;align=center;verticalAlign=middle;whiteSpace=wrap;rounded=0;" vertex="1" parent="1">
          <mxGeometry x="-320" y="20" width="290" height="40" as="geometry" />
        </mxCell>
        <mxCell id="DlZnM8HmDbADATsCwCUh-2" value="&lt;font style=&quot;font-size: 18px;&quot;&gt;功能定位：为互联网医院引流&lt;/font&gt;" style="text;html=1;strokeColor=none;fillColor=none;align=center;verticalAlign=middle;whiteSpace=wrap;rounded=0;" vertex="1" parent="1">
          <mxGeometry x="-351" y="70" width="290" height="40" as="geometry" />
        </mxCell>
        <mxCell id="DlZnM8HmDbADATsCwCUh-22" style="edgeStyle=orthogonalEdgeStyle;rounded=0;orthogonalLoop=1;jettySize=auto;html=1;entryX=0.5;entryY=0;entryDx=0;entryDy=0;fontSize=18;" edge="1" parent="1" source="DlZnM8HmDbADATsCwCUh-7" target="DlZnM8HmDbADATsCwCUh-8">
          <mxGeometry relative="1" as="geometry" />
        </mxCell>
        <mxCell id="DlZnM8HmDbADATsCwCUh-7" value="合作商签约" style="strokeWidth=2;html=1;shape=mxgraph.flowchart.terminator;whiteSpace=wrap;fontSize=18;" vertex="1" parent="1">
          <mxGeometry x="-220" y="220" width="100" height="60" as="geometry" />
        </mxCell>
        <mxCell id="DlZnM8HmDbADATsCwCUh-23" style="edgeStyle=orthogonalEdgeStyle;rounded=0;orthogonalLoop=1;jettySize=auto;html=1;entryX=0.5;entryY=0;entryDx=0;entryDy=0;fontSize=18;" edge="1" parent="1" source="DlZnM8HmDbADATsCwCUh-8" target="DlZnM8HmDbADATsCwCUh-9">
          <mxGeometry relative="1" as="geometry" />
        </mxCell>
        <mxCell id="DlZnM8HmDbADATsCwCUh-8" value="平台发卡" style="rounded=1;whiteSpace=wrap;html=1;absoluteArcSize=1;arcSize=14;strokeWidth=2;fontSize=18;" vertex="1" parent="1">
          <mxGeometry x="-220" y="320" width="100" height="49" as="geometry" />
        </mxCell>
        <mxCell id="DlZnM8HmDbADATsCwCUh-25" style="edgeStyle=orthogonalEdgeStyle;rounded=0;orthogonalLoop=1;jettySize=auto;html=1;entryX=0.5;entryY=0;entryDx=0;entryDy=0;entryPerimeter=0;fontSize=18;" edge="1" parent="1" source="DlZnM8HmDbADATsCwCUh-9" target="DlZnM8HmDbADATsCwCUh-10">
          <mxGeometry relative="1" as="geometry" />
        </mxCell>
        <mxCell id="DlZnM8HmDbADATsCwCUh-9" value="合作商售卡" style="rounded=1;whiteSpace=wrap;html=1;absoluteArcSize=1;arcSize=14;strokeWidth=2;fontSize=18;" vertex="1" parent="1">
          <mxGeometry x="-220" y="410" width="100" height="49" as="geometry" />
        </mxCell>
        <mxCell id="DlZnM8HmDbADATsCwCUh-14" value="购买" style="edgeStyle=orthogonalEdgeStyle;rounded=0;orthogonalLoop=1;jettySize=auto;html=1;fontSize=18;" edge="1" parent="1" source="DlZnM8HmDbADATsCwCUh-10" target="DlZnM8HmDbADATsCwCUh-12">
          <mxGeometry relative="1" as="geometry">
            <Array as="points">
              <mxPoint x="-90" y="547" />
              <mxPoint x="-90" y="547" />
            </Array>
          </mxGeometry>
        </mxCell>
        <mxCell id="DlZnM8HmDbADATsCwCUh-17" value="未购买" style="edgeStyle=orthogonalEdgeStyle;rounded=0;orthogonalLoop=1;jettySize=auto;html=1;entryX=0;entryY=0.5;entryDx=0;entryDy=0;entryPerimeter=0;fontSize=18;exitX=0;exitY=0.5;exitDx=0;exitDy=0;exitPerimeter=0;" edge="1" parent="1" source="DlZnM8HmDbADATsCwCUh-10" target="DlZnM8HmDbADATsCwCUh-11">
          <mxGeometry x="0.2168" relative="1" as="geometry">
            <Array as="points">
              <mxPoint x="-390" y="547" />
              <mxPoint x="-390" y="805" />
            </Array>
            <mxPoint as="offset" />
          </mxGeometry>
        </mxCell>
        <mxCell id="DlZnM8HmDbADATsCwCUh-10" value="用户购卡" style="strokeWidth=2;html=1;shape=mxgraph.flowchart.decision;whiteSpace=wrap;fontSize=18;" vertex="1" parent="1">
          <mxGeometry x="-220" y="496.5" width="100" height="100" as="geometry" />
        </mxCell>
        <mxCell id="DlZnM8HmDbADATsCwCUh-11" value="完成" style="strokeWidth=2;html=1;shape=mxgraph.flowchart.terminator;whiteSpace=wrap;fontSize=18;" vertex="1" parent="1">
          <mxGeometry x="-369" y="775" width="100" height="60" as="geometry" />
        </mxCell>
        <mxCell id="DlZnM8HmDbADATsCwCUh-16" style="edgeStyle=orthogonalEdgeStyle;rounded=0;orthogonalLoop=1;jettySize=auto;html=1;entryX=0.5;entryY=0;entryDx=0;entryDy=0;entryPerimeter=0;fontSize=18;" edge="1" parent="1" source="DlZnM8HmDbADATsCwCUh-12" target="DlZnM8HmDbADATsCwCUh-13">
          <mxGeometry relative="1" as="geometry" />
        </mxCell>
        <mxCell id="DlZnM8HmDbADATsCwCUh-12" value="在线支付&lt;br&gt;绑卡" style="rounded=1;whiteSpace=wrap;html=1;absoluteArcSize=1;arcSize=14;strokeWidth=2;fontSize=18;" vertex="1" parent="1">
          <mxGeometry y="517.5" width="100" height="58" as="geometry" />
        </mxCell>
        <mxCell id="DlZnM8HmDbADATsCwCUh-18" value="未满足用户需求" style="edgeStyle=orthogonalEdgeStyle;rounded=0;orthogonalLoop=1;jettySize=auto;html=1;fontSize=18;" edge="1" parent="1" source="DlZnM8HmDbADATsCwCUh-13" target="DlZnM8HmDbADATsCwCUh-77">
          <mxGeometry x="0.4286" relative="1" as="geometry">
            <mxPoint as="offset" />
          </mxGeometry>
        </mxCell>
        <mxCell id="DlZnM8HmDbADATsCwCUh-20" value="满足用户需求" style="edgeStyle=orthogonalEdgeStyle;rounded=0;orthogonalLoop=1;jettySize=auto;html=1;entryX=0.5;entryY=0;entryDx=0;entryDy=0;entryPerimeter=0;fontSize=18;" edge="1" parent="1" source="DlZnM8HmDbADATsCwCUh-13" target="DlZnM8HmDbADATsCwCUh-19">
          <mxGeometry x="0.5455" y="10" relative="1" as="geometry">
            <mxPoint as="offset" />
          </mxGeometry>
        </mxCell>
        <mxCell id="DlZnM8HmDbADATsCwCUh-13" value="智能导诊" style="strokeWidth=2;html=1;shape=mxgraph.flowchart.decision;whiteSpace=wrap;fontSize=18;" vertex="1" parent="1">
          <mxGeometry y="630" width="100" height="100" as="geometry" />
        </mxCell>
        <mxCell id="DlZnM8HmDbADATsCwCUh-19" value="导流到互联网医院进行问诊流程" style="strokeWidth=2;html=1;shape=mxgraph.flowchart.terminator;whiteSpace=wrap;fontSize=18;" vertex="1" parent="1">
          <mxGeometry x="150" y="770" width="160" height="70" as="geometry" />
        </mxCell>
        <mxCell id="DlZnM8HmDbADATsCwCUh-27" value="&lt;font style=&quot;font-size: 24px;&quot;&gt;主体业务流程&lt;/font&gt;" style="text;html=1;strokeColor=none;fillColor=none;align=center;verticalAlign=middle;whiteSpace=wrap;rounded=0;fontSize=18;" vertex="1" parent="1">
          <mxGeometry x="-140" y="145.5" width="160" height="30" as="geometry" />
        </mxCell>
        <mxCell id="DlZnM8HmDbADATsCwCUh-43" value="" style="rounded=0;whiteSpace=wrap;html=1;fontSize=24;fillColor=#d5e8d4;strokeColor=#82b366;" vertex="1" parent="1">
          <mxGeometry x="-291" y="1600" width="530" height="490" as="geometry" />
        </mxCell>
        <mxCell id="DlZnM8HmDbADATsCwCUh-44" value="&lt;font style=&quot;font-size: 24px;&quot;&gt;导流业务&lt;/font&gt;" style="text;html=1;strokeColor=none;fillColor=none;align=center;verticalAlign=middle;whiteSpace=wrap;rounded=0;fontSize=18;" vertex="1" parent="1">
          <mxGeometry x="-269" y="1610" width="160" height="30" as="geometry" />
        </mxCell>
        <mxCell id="DlZnM8HmDbADATsCwCUh-45" value="用户模块" style="rounded=1;whiteSpace=wrap;html=1;fontSize=24;fillColor=#cce5ff;strokeColor=#36393d;" vertex="1" parent="1">
          <mxGeometry x="-267" y="2051" width="486" height="30" as="geometry" />
        </mxCell>
        <mxCell id="DlZnM8HmDbADATsCwCUh-46" value="账户模块" style="rounded=1;whiteSpace=wrap;html=1;fontSize=24;fillColor=#cce5ff;strokeColor=#36393d;" vertex="1" parent="1">
          <mxGeometry x="-267" y="2011" width="486" height="30" as="geometry" />
        </mxCell>
        <mxCell id="DlZnM8HmDbADATsCwCUh-47" value="家庭医生模块（考虑放在互联网医院中）" style="rounded=1;whiteSpace=wrap;html=1;fontSize=24;fillColor=#cce5ff;strokeColor=#36393d;" vertex="1" parent="1">
          <mxGeometry x="-267" y="1810" width="486" height="30" as="geometry" />
        </mxCell>
        <mxCell id="DlZnM8HmDbADATsCwCUh-48" value="订单模块" style="rounded=1;whiteSpace=wrap;html=1;fontSize=24;fillColor=#cce5ff;strokeColor=#36393d;" vertex="1" parent="1">
          <mxGeometry x="-267" y="1971" width="486" height="30" as="geometry" />
        </mxCell>
        <mxCell id="DlZnM8HmDbADATsCwCUh-49" value="支付模块" style="rounded=1;whiteSpace=wrap;html=1;fontSize=24;fillColor=#cce5ff;strokeColor=#36393d;" vertex="1" parent="1">
          <mxGeometry x="-269" y="1931" width="486" height="30" as="geometry" />
        </mxCell>
        <mxCell id="DlZnM8HmDbADATsCwCUh-50" value="卡券模块" style="rounded=1;whiteSpace=wrap;html=1;fontSize=24;fillColor=#cce5ff;strokeColor=#36393d;" vertex="1" parent="1">
          <mxGeometry x="-269" y="1891" width="486" height="30" as="geometry" />
        </mxCell>
        <mxCell id="DlZnM8HmDbADATsCwCUh-51" value="积分模块" style="rounded=1;whiteSpace=wrap;html=1;fontSize=24;fillColor=#cce5ff;strokeColor=#36393d;" vertex="1" parent="1">
          <mxGeometry x="-267" y="1730" width="486" height="30" as="geometry" />
        </mxCell>
        <mxCell id="DlZnM8HmDbADATsCwCUh-52" value="健康咨询模块" style="rounded=1;whiteSpace=wrap;html=1;fontSize=24;fillColor=#cce5ff;strokeColor=#36393d;" vertex="1" parent="1">
          <mxGeometry x="-267" y="1770" width="486" height="30" as="geometry" />
        </mxCell>
        <mxCell id="DlZnM8HmDbADATsCwCUh-54" value="商城模块" style="rounded=1;whiteSpace=wrap;html=1;fontSize=24;fillColor=#cce5ff;strokeColor=#36393d;" vertex="1" parent="1">
          <mxGeometry x="-267" y="1650" width="486" height="30" as="geometry" />
        </mxCell>
        <mxCell id="DlZnM8HmDbADATsCwCUh-55" value="种草模块" style="rounded=1;whiteSpace=wrap;html=1;fontSize=24;fillColor=#cce5ff;strokeColor=#36393d;" vertex="1" parent="1">
          <mxGeometry x="-267" y="1690" width="486" height="30" as="geometry" />
        </mxCell>
        <mxCell id="DlZnM8HmDbADATsCwCUh-57" value="开源快速开发脚手架（基础组件）" style="rounded=1;whiteSpace=wrap;html=1;fontSize=24;fillColor=#ffff88;strokeColor=#36393d;" vertex="1" parent="1">
          <mxGeometry x="-291" y="2100" width="756" height="70" as="geometry" />
        </mxCell>
        <mxCell id="DlZnM8HmDbADATsCwCUh-59" value="微信公众号" style="rounded=0;whiteSpace=wrap;html=1;fontSize=24;fillColor=#cdeb8b;strokeColor=#36393d;" vertex="1" parent="1">
          <mxGeometry x="-320" y="1410" width="375" height="60" as="geometry" />
        </mxCell>
        <mxCell id="DlZnM8HmDbADATsCwCUh-61" value="&lt;font style=&quot;font-size: 24px;&quot;&gt;Service&lt;/font&gt;" style="text;html=1;strokeColor=none;fillColor=none;align=center;verticalAlign=middle;whiteSpace=wrap;rounded=0;fontSize=18;" vertex="1" parent="1">
          <mxGeometry x="-293.5" y="1550" width="213.5" height="40" as="geometry" />
        </mxCell>
        <mxCell id="DlZnM8HmDbADATsCwCUh-63" value="管理后台" style="rounded=0;whiteSpace=wrap;html=1;fontSize=24;fillColor=#cdeb8b;strokeColor=#36393d;" vertex="1" parent="1">
          <mxGeometry x="105" y="1410" width="380" height="60" as="geometry" />
        </mxCell>
        <mxCell id="DlZnM8HmDbADATsCwCUh-64" value="合作商模块" style="rounded=1;whiteSpace=wrap;html=1;fontSize=24;fillColor=#cce5ff;strokeColor=#36393d;" vertex="1" parent="1">
          <mxGeometry x="-267" y="1850" width="486" height="30" as="geometry" />
        </mxCell>
        <mxCell id="DlZnM8HmDbADATsCwCUh-65" value="" style="shape=flexArrow;endArrow=classic;html=1;rounded=0;fontSize=24;fillColor=#594FE2;strokeColor=#006EAF;" edge="1" parent="1">
          <mxGeometry width="50" height="50" relative="1" as="geometry">
            <mxPoint x="-135" y="1540" as="sourcePoint" />
            <mxPoint x="-135" y="1470" as="targetPoint" />
          </mxGeometry>
        </mxCell>
        <mxCell id="DlZnM8HmDbADATsCwCUh-66" value="C 端" style="text;html=1;strokeColor=none;fillColor=none;align=center;verticalAlign=middle;whiteSpace=wrap;rounded=0;fontSize=24;" vertex="1" parent="1">
          <mxGeometry x="-215" y="1490" width="60" height="30" as="geometry" />
        </mxCell>
        <mxCell id="DlZnM8HmDbADATsCwCUh-67" value="" style="shape=flexArrow;endArrow=classic;html=1;rounded=0;fontSize=24;fillColor=#594FE2;strokeColor=#006EAF;" edge="1" parent="1">
          <mxGeometry width="50" height="50" relative="1" as="geometry">
            <mxPoint x="295" y="1540" as="sourcePoint" />
            <mxPoint x="295" y="1470" as="targetPoint" />
          </mxGeometry>
        </mxCell>
        <mxCell id="DlZnM8HmDbADATsCwCUh-68" value="B 端" style="text;html=1;strokeColor=none;fillColor=none;align=center;verticalAlign=middle;whiteSpace=wrap;rounded=0;fontSize=24;" vertex="1" parent="1">
          <mxGeometry x="205" y="1490" width="60" height="30" as="geometry" />
        </mxCell>
        <mxCell id="DlZnM8HmDbADATsCwCUh-70" value="" style="rounded=0;whiteSpace=wrap;html=1;fontSize=24;fillColor=#eeeeee;strokeColor=#36393d;" vertex="1" parent="1">
          <mxGeometry x="255" y="1600" width="210" height="490" as="geometry" />
        </mxCell>
        <mxCell id="DlZnM8HmDbADATsCwCUh-58" value="消&lt;br&gt;息&lt;br&gt;发&lt;br&gt;送&lt;br&gt;服&lt;br&gt;务" style="rounded=1;whiteSpace=wrap;html=1;fontSize=24;fillColor=#fff2cc;gradientColor=#ffd966;strokeColor=#d6b656;" vertex="1" parent="1">
          <mxGeometry x="315" y="1670" width="35" height="400" as="geometry" />
        </mxCell>
        <mxCell id="DlZnM8HmDbADATsCwCUh-53" value="互&lt;br&gt;联&lt;br&gt;网&lt;br&gt;医&lt;br&gt;院&lt;br&gt;服&lt;br&gt;务" style="rounded=1;whiteSpace=wrap;html=1;fontSize=24;fillColor=#fff2cc;gradientColor=#ffd966;strokeColor=#d6b656;" vertex="1" parent="1">
          <mxGeometry x="265" y="1670" width="35" height="400" as="geometry" />
        </mxCell>
        <mxCell id="DlZnM8HmDbADATsCwCUh-71" value="第&lt;br&gt;三&lt;br&gt;方支付&lt;br&gt;服务" style="rounded=1;whiteSpace=wrap;html=1;fontSize=24;fillColor=#fff2cc;gradientColor=#ffd966;strokeColor=#d6b656;" vertex="1" parent="1">
          <mxGeometry x="363" y="1670" width="35" height="397.5" as="geometry" />
        </mxCell>
        <mxCell id="DlZnM8HmDbADATsCwCUh-72" value="公共&lt;br&gt;中央&lt;br&gt;服务" style="rounded=1;whiteSpace=wrap;html=1;fontSize=24;fillColor=#fff2cc;gradientColor=#ffd966;strokeColor=#d6b656;" vertex="1" parent="1">
          <mxGeometry x="415" y="1670" width="35" height="400" as="geometry" />
        </mxCell>
        <mxCell id="DlZnM8HmDbADATsCwCUh-75" value="&lt;font style=&quot;font-size: 24px;&quot;&gt;技术架构&lt;/font&gt;" style="text;html=1;strokeColor=none;fillColor=none;align=center;verticalAlign=middle;whiteSpace=wrap;rounded=0;fontSize=18;" vertex="1" parent="1">
          <mxGeometry x="2.5" y="1360" width="160" height="30" as="geometry" />
        </mxCell>
        <mxCell id="DlZnM8HmDbADATsCwCUh-76" value="&lt;font style=&quot;font-size: 24px;&quot;&gt;第三方服务依赖&lt;/font&gt;" style="text;html=1;strokeColor=none;fillColor=none;align=center;verticalAlign=middle;whiteSpace=wrap;rounded=0;fontSize=18;" vertex="1" parent="1">
          <mxGeometry x="265" y="1620" width="180" height="30" as="geometry" />
        </mxCell>
        <mxCell id="DlZnM8HmDbADATsCwCUh-78" style="edgeStyle=orthogonalEdgeStyle;rounded=0;orthogonalLoop=1;jettySize=auto;html=1;fontSize=24;fillColor=#594FE2;" edge="1" parent="1" source="DlZnM8HmDbADATsCwCUh-77" target="DlZnM8HmDbADATsCwCUh-19">
          <mxGeometry relative="1" as="geometry" />
        </mxCell>
        <mxCell id="DlZnM8HmDbADATsCwCUh-79" value="&lt;font style=&quot;font-size: 18px;&quot;&gt;用户问诊&lt;/font&gt;" style="edgeLabel;html=1;align=center;verticalAlign=middle;resizable=0;points=[];fontSize=24;" vertex="1" connectable="0" parent="DlZnM8HmDbADATsCwCUh-78">
          <mxGeometry x="-0.1267" y="-4" relative="1" as="geometry">
            <mxPoint x="12" y="-4" as="offset" />
          </mxGeometry>
        </mxCell>
        <mxCell id="DlZnM8HmDbADATsCwCUh-80" style="edgeStyle=orthogonalEdgeStyle;rounded=0;orthogonalLoop=1;jettySize=auto;html=1;entryX=1;entryY=0.5;entryDx=0;entryDy=0;entryPerimeter=0;fontSize=18;fillColor=#594FE2;" edge="1" parent="1" source="DlZnM8HmDbADATsCwCUh-77" target="DlZnM8HmDbADATsCwCUh-11">
          <mxGeometry relative="1" as="geometry" />
        </mxCell>
        <mxCell id="DlZnM8HmDbADATsCwCUh-81" value="用户结束" style="edgeLabel;html=1;align=center;verticalAlign=middle;resizable=0;points=[];fontSize=18;" vertex="1" connectable="0" parent="DlZnM8HmDbADATsCwCUh-80">
          <mxGeometry x="-0.2133" y="-1" relative="1" as="geometry">
            <mxPoint x="-9" y="1" as="offset" />
          </mxGeometry>
        </mxCell>
        <mxCell id="DlZnM8HmDbADATsCwCUh-77" value="人工导诊" style="strokeWidth=2;html=1;shape=mxgraph.flowchart.decision;whiteSpace=wrap;fontSize=18;" vertex="1" parent="1">
          <mxGeometry x="-150" y="755" width="100" height="100" as="geometry" />
        </mxCell>
        <mxCell id="DlZnM8HmDbADATsCwCUh-92" style="edgeStyle=orthogonalEdgeStyle;rounded=0;orthogonalLoop=1;jettySize=auto;html=1;fontSize=18;fillColor=#594FE2;" edge="1" parent="1" source="DlZnM8HmDbADATsCwCUh-82" target="DlZnM8HmDbADATsCwCUh-10">
          <mxGeometry relative="1" as="geometry">
            <Array as="points">
              <mxPoint x="50" y="480" />
              <mxPoint x="-170" y="480" />
            </Array>
          </mxGeometry>
        </mxCell>
        <mxCell id="DlZnM8HmDbADATsCwCUh-82" value="用户主动&lt;br&gt;购卡入口" style="strokeWidth=2;html=1;shape=mxgraph.flowchart.terminator;whiteSpace=wrap;fontSize=18;" vertex="1" parent="1">
          <mxGeometry y="210" width="100" height="60" as="geometry" />
        </mxCell>
      </root>
    </mxGraphModel>
  </diagram>
</mxfile>
